<?xml version="1.0" standalone="no"?><!DOCTYPE svg PUBLIC "-//W3C//DTD SVG 1.1//EN" "http://www.w3.org/Graphics/SVG/1.1/DTD/svg11.dtd"><svg t="1548145973369" class="icon" style="" viewBox="0 0 1024 1024" version="1.1" xmlns="http://www.w3.org/2000/svg" p-id="1292" xmlns:xlink="http://www.w3.org/1999/xlink" width="200" height="200"><defs><style type="text/css"></style></defs><path d="M411.00174222 948.90666667C601.56586667 948.90666667 756.66773333 793.87761778 756.66773333 603.24067555c0-75.00231113-24.32113777-144.32483555-65.02627555-201.12270222l68.95843555-68.95843555L879.07441778 451.70688c18.20444445 18.20444445 47.69564445 18.20444445 65.90008889 0s18.20444445-47.69564445-1e-8-65.90008889l-118.54734221-118.47452444 83.59480888-83.59480889c18.20444445-18.20444445 18.20444445-47.69564445 0-65.90008889C900.91975111 108.73514667 888.97763555 104.22044445 877.03552 104.22044445c-11.94211556 0-23.88423111 4.51470222-32.98645333 13.68974222l-83.52199112 83.59480888-112.72192-112.64910222C638.77575111 79.60803555 626.83363555 75.09333333 614.89152 75.09333333c-11.94211556 0-23.88423111 4.51470222-32.98645333 13.68974222-18.20444445 18.20444445-18.20444445 47.69564445 0 65.9000889L694.62698667 267.33226667l-66.99235554 66.99235555c-59.34648889-47.91409778-134.64007111-76.67712-216.63288891-76.67712-190.56412445 0-345.66599111 155.02904889-345.66599111 345.66599111C65.40856889 793.87761778 220.43761778 948.90666668 411.00174222 948.90666667zM411.00174222 350.85425778c66.70108445 0 127.21265778 26.2144 172.43249778 68.59434667C585.69159111 424.83712 588.9683911 430.00718222 593.41027555 434.44906667 596.97834667 437.94432 601.12896 440.20167111 605.35239111 442.38620445c36.26325333 43.69066667 58.10858666 99.76035555 58.10858667 160.92728888 0 139.22759111-113.23164445 252.45923555-252.45923556 252.45923556s-252.45923555-113.23164445-252.45923556-252.45923556S271.84696889 350.85425778 411.00174222 350.85425778z" p-id="1293"></path></svg>