<?xml version="1.0" standalone="no"?><!DOCTYPE svg PUBLIC "-//W3C//DTD SVG 1.1//EN" "http://www.w3.org/Graphics/SVG/1.1/DTD/svg11.dtd"><svg t="1548146005936" class="icon" style="" viewBox="0 0 1024 1024" version="1.1" xmlns="http://www.w3.org/2000/svg" p-id="1649" xmlns:xlink="http://www.w3.org/1999/xlink" width="200" height="200"><defs><style type="text/css"></style></defs><path d="M384 320c-174.933333 0-320 145.066667-320 320s145.066667 320 320 320 320-145.066667 320-320S558.933333 320 384 320z m0 567.466667c-136.533333 0-247.466667-110.933333-247.466667-247.466667S247.466667 392.533333 384 392.533333s247.466667 110.933333 247.466667 247.466667-110.933333 247.466667-247.466667 247.466667zM951.466667 72.533333c-8.533333-8.533333-17.066667-8.533333-25.6-8.533333h-375.466667c-21.333333 0-34.133333 17.066667-34.133333 34.133333s17.066667 34.133333 34.133333 34.133334h341.333333v341.333333c0 21.333333 17.066667 34.133333 34.133334 34.133333s34.133333-17.066667 34.133333-34.133333V98.133333c0-8.533333-4.266667-17.066667-8.533333-25.6z" p-id="1650"></path></svg>